<svg version="1" xmlns="http://www.w3.org/2000/svg" width="933.333" height="933.333" viewBox="0 0 700.000000 700.000000"><path d="M129 1.1C96.5 5.3 67.1 19.9 43.5 43.5c-21.4 21.4-35.1 47-41.2 77.2C.6 129 .5 141.6.5 350c0 211.9.1 220.8 1.9 229.5 12.7 60.7 56.3 104.7 116.7 117.8l10.4 2.2h441l10.4-2.2c46.3-10.1 83.2-38.4 103.9-79.8 5.1-10.3 9.6-23.6 12.5-36.6l2.2-10.4V350c0-211.9-.1-220.8-1.9-229.5-6.4-30.6-19.8-55.8-41.1-77-20.8-20.8-44.8-33.9-74.3-40.7L572.5.6 354 .4C233.8.3 132.6.6 129 1.1zm260.9 102.2c6.2 2.2 6.7 3.7 11.8 37l4.8 30.9 10 3.7c5.5 2.1 12.2 4.8 14.9 6 5.8 2.6 2.1 4.6 32.4-17.6 12.2-9 23.6-16.6 25.2-16.9 4.9-1 7.7.3 16.3 7.9 12.9 11.3 38.1 36.3 44.2 43.8 6.2 7.5 7.8 11.4 6.5 15.9-.5 1.6-4.8 8-9.7 14.1-4.8 6.2-12.9 16.4-17.9 22.8l-9.2 11.6 2.8 5.5c1.5 3 4.4 9.8 6.5 15 2 5.2 4.2 10 4.9 10.6.6.6 6.7 1.9 13.6 2.8 26.9 3.8 48.8 7.4 50.7 8.5 1.1.5 2.8 2.6 3.7 4.5 1.4 3 1.6 8.4 1.6 41.8 0 36.5-.1 38.5-2 41.6-1.1 1.8-3 3.7-4.2 4.2-1.3.5-14.9 2.7-30.3 5-15.4 2.2-29.4 4.3-31.1 4.6-2.8.5-3.4 1.3-5.4 6.7-1.3 3.4-4 9.9-6.1 14.3-2.2 4.5-3.9 8.5-3.9 8.9 0 .9 7.4 10.5 21.5 27.8 16.1 19.9 16.5 20.5 16.5 24.9 0 5-7.1 13.6-27.6 33.9-26 25.6-34.5 31.8-41.7 30.5-2.4-.4-10.7-6.1-27.1-18.6-12.9-9.9-23.8-18-24.2-18-.3 0-6.8 2.5-14.3 5.5-7.6 3-14.3 5.5-14.9 5.5-.7 0-1.2.2-1.2.5s-1.4 10-3 21.7c-3.8 26.7-6.5 39.6-8.9 42.8-3.5 4.8-6.5 5.1-48.1 4.8-42.3-.3-43.4-.5-45.8-6.5-.6-1.5-3.2-16-5.7-32.2-2.5-16.2-4.8-29.8-5-30.2-.3-.4-3.6-1.7-7.3-3-3.7-1.2-10.1-3.7-14.1-5.6-4.1-1.8-8-3.2-8.7-2.9-.6.2-11.7 8.2-24.5 17.7-12.9 9.5-24.6 17.7-26 18.2-5.3 2.1-9.1.2-21-10.5-13.7-12.3-38.1-36.5-43.3-43-3.8-4.8-5.3-9.8-4.2-14.2.3-1.4 6.8-10.3 14.4-19.8 7.6-9.5 15.7-19.8 18-23l4.3-5.6-3.9-7.9c-2.2-4.3-5.2-11.3-6.7-15.6-1.6-4.4-3.3-8.1-3.9-8.3-.6-.2-15-2.4-31.9-4.8-24-3.5-31.3-4.9-32.9-6.3-4.6-4-4.8-6.1-4.8-45 0-34.7.1-36.9 2-40.8 1.1-2.3 3.1-4.7 4.5-5.3 1.3-.6 13.3-2.7 26.7-4.7 13.4-1.9 27.3-4 30.9-4.6l6.7-1 2.2-6.2c1.2-3.4 4.2-10.1 6.6-15l4.3-8.7-11.1-14.3c-6.1-7.8-14.3-18-18.3-22.7-11-13-11.5-14.6-6.3-22.6 5.2-7.9 44.1-46.2 53.1-52.2 7.9-5.2 10.5-6 15.1-4.3 1.3.6 12.6 8.7 25.1 18.1 12.4 9.4 23.2 17.3 24 17.6.7.3 5-1.1 9.5-3.1s11.1-4.7 14.8-5.9l6.6-2.3 2.3-17.4c3-22.6 6.9-42.6 9.1-46.4 3-5.1 5.2-5.4 46.7-5.4 26.9 0 39 .4 41.4 1.2z"/><path d="M337.5 268c-21.5 3-37.2 11.2-52.2 27.4-14.6 15.8-21.3 32.9-21.3 54.7 0 23.1 8.6 42.9 25.7 59 22 20.7 52.5 28.3 82.5 20.4 29-7.5 54.4-34.6 59.8-63.5 1.7-9 1.5-26.1-.4-34.2-7.2-30.7-34.5-57.1-64.8-62.7-8.6-1.5-22.5-2.1-29.3-1.1z"/></svg>